<svg width="91" height="26" viewBox="0 0 96 26" fill="none" xmlns="http://www.w3.org/2000/svg">
<path d="M16.7891 19.2617H15.0469V24H13.875V19.2617H12.1562V18.3125H16.7891V19.2617ZM18.4883 20.2344C18.7878 19.875 19.1641 19.6953 19.6172 19.6953C20.5339 19.6953 20.9987 20.2279 21.0117 21.293V24H19.8828V21.3242C19.8828 21.082 19.8307 20.9036 19.7266 20.7891C19.6224 20.6719 19.4492 20.6133 19.207 20.6133C18.8763 20.6133 18.6367 20.7409 18.4883 20.9961V24H17.3594V18H18.4883V20.2344ZM21.6875 21.8477C21.6875 21.4284 21.7682 21.0547 21.9297 20.7266C22.0911 20.3984 22.3229 20.1445 22.625 19.9648C22.9297 19.7852 23.2826 19.6953 23.6836 19.6953C24.2539 19.6953 24.7188 19.8698 25.0781 20.2188C25.4401 20.5677 25.6419 21.0417 25.6836 21.6406L25.6914 21.9297C25.6914 22.5781 25.5104 23.099 25.1484 23.4922C24.7865 23.8828 24.3008 24.0781 23.6914 24.0781C23.082 24.0781 22.5951 23.8828 22.2305 23.4922C21.8685 23.1016 21.6875 22.5703 21.6875 21.8984V21.8477ZM22.8164 21.9297C22.8164 22.3307 22.8919 22.638 23.043 22.8516C23.194 23.0625 23.4102 23.168 23.6914 23.168C23.9648 23.168 24.1784 23.0638 24.332 22.8555C24.4857 22.6445 24.5625 22.3086 24.5625 21.8477C24.5625 21.4544 24.4857 21.1497 24.332 20.9336C24.1784 20.7174 23.9622 20.6094 23.6836 20.6094C23.4076 20.6094 23.194 20.7174 23.043 20.9336C22.8919 21.1471 22.8164 21.4792 22.8164 21.9297ZM28.918 23.5703C28.6393 23.9089 28.2539 24.0781 27.7617 24.0781C27.3086 24.0781 26.9622 23.9479 26.7227 23.6875C26.4857 23.4271 26.3646 23.0456 26.3594 22.543V19.7734H27.4883V22.5039C27.4883 22.944 27.6888 23.1641 28.0898 23.1641C28.4727 23.1641 28.7357 23.0312 28.8789 22.7656V19.7734H30.0117V24H28.9492L28.918 23.5703ZM30.6992 21.8555C30.6992 21.207 30.8529 20.6849 31.1602 20.2891C31.4701 19.8932 31.8867 19.6953 32.4102 19.6953C32.8737 19.6953 33.2344 19.8542 33.4922 20.1719L33.5391 19.7734H34.5625V23.8594C34.5625 24.2292 34.4779 24.5508 34.3086 24.8242C34.1419 25.0977 33.9062 25.306 33.6016 25.4492C33.2969 25.5924 32.9401 25.6641 32.5312 25.6641C32.2214 25.6641 31.9193 25.6016 31.625 25.4766C31.3307 25.3542 31.1081 25.1953 30.957 25L31.457 24.3125C31.7383 24.6276 32.0794 24.7852 32.4805 24.7852C32.7799 24.7852 33.013 24.7044 33.1797 24.543C33.3464 24.3841 33.4297 24.1576 33.4297 23.8633V23.6367C33.1693 23.931 32.8268 24.0781 32.4023 24.0781C31.8945 24.0781 31.4831 23.8802 31.168 23.4844C30.8555 23.0859 30.6992 22.5586 30.6992 21.9023V21.8555ZM31.8281 21.9375C31.8281 22.3203 31.9049 22.6211 32.0586 22.8398C32.2122 23.056 32.4232 23.1641 32.6914 23.1641C33.0352 23.1641 33.2812 23.0352 33.4297 22.7773V21C33.2786 20.7422 33.0352 20.6133 32.6992 20.6133C32.4284 20.6133 32.2148 20.724 32.0586 20.9453C31.9049 21.1667 31.8281 21.4974 31.8281 21.9375ZM36.5352 20.2344C36.8346 19.875 37.2109 19.6953 37.6641 19.6953C38.5807 19.6953 39.0456 20.2279 39.0586 21.293V24H37.9297V21.3242C37.9297 21.082 37.8776 20.9036 37.7734 20.7891C37.6693 20.6719 37.4961 20.6133 37.2539 20.6133C36.9232 20.6133 36.6836 20.7409 36.5352 20.9961V24H35.4062V18H36.5352V20.2344ZM41.2617 18.7344V19.7734H41.9844V20.6016H41.2617V22.7109C41.2617 22.8672 41.2917 22.9792 41.3516 23.0469C41.4115 23.1146 41.526 23.1484 41.6953 23.1484C41.8203 23.1484 41.931 23.1393 42.0273 23.1211V23.9766C41.806 24.0443 41.5781 24.0781 41.3438 24.0781C40.5521 24.0781 40.1484 23.6784 40.1328 22.8789V20.6016H39.5156V19.7734H40.1328V18.7344H41.2617ZM44.0664 22.207L44.1758 22.957L44.3359 22.2812L45.4609 18.3125H46.0938L47.1914 22.2812L47.3477 22.9688L47.4688 22.2031L48.3516 18.3125H49.1055L47.7266 24H47.043L45.8711 19.8555L45.7812 19.4219L45.6914 19.8555L44.4766 24H43.793L42.418 18.3125H43.168L44.0664 22.207ZM49.5117 21.8477C49.5117 21.4336 49.5924 21.0612 49.7539 20.7305C49.918 20.3997 50.1445 20.1445 50.4336 19.9648C50.7253 19.7852 51.0573 19.6953 51.4297 19.6953C52.0052 19.6953 52.4701 19.8945 52.8242 20.293C53.181 20.6914 53.3594 21.2214 53.3594 21.8828V21.9336C53.3594 22.3451 53.2799 22.7148 53.1211 23.043C52.9648 23.3685 52.7396 23.6224 52.4453 23.8047C52.1536 23.987 51.8177 24.0781 51.4375 24.0781C50.8646 24.0781 50.3997 23.8789 50.043 23.4805C49.6888 23.082 49.5117 22.5547 49.5117 21.8984V21.8477ZM50.2383 21.9336C50.2383 22.4023 50.3464 22.7786 50.5625 23.0625C50.7812 23.3464 51.0729 23.4883 51.4375 23.4883C51.8047 23.4883 52.0964 23.3451 52.3125 23.0586C52.5286 22.7695 52.6367 22.3659 52.6367 21.8477C52.6367 21.3841 52.526 21.0091 52.3047 20.7227C52.0859 20.4336 51.7943 20.2891 51.4297 20.2891C51.0729 20.2891 50.7852 20.431 50.5664 20.7148C50.3477 20.9987 50.2383 21.4049 50.2383 21.9336ZM56.3086 20.4219C56.1992 20.4036 56.0807 20.3945 55.9531 20.3945C55.4792 20.3945 55.1576 20.5964 54.9883 21V24H54.2656V19.7734H54.9688L54.9805 20.2617C55.2174 19.8841 55.5534 19.6953 55.9883 19.6953C56.1289 19.6953 56.2357 19.7135 56.3086 19.75V20.4219ZM58.1562 22.043L57.7031 22.5156V24H56.9805V18H57.7031V21.6289L58.0898 21.1641L59.4062 19.7734H60.2852L58.6406 21.5391L60.4766 24H59.6289L58.1562 22.043ZM63.4922 22.8789C63.4922 22.6836 63.418 22.5326 63.2695 22.4258C63.1237 22.3164 62.8672 22.2227 62.5 22.1445C62.1354 22.0664 61.8451 21.9727 61.6289 21.8633C61.4154 21.7539 61.2565 21.6237 61.1523 21.4727C61.0508 21.3216 61 21.1419 61 20.9336C61 20.5872 61.1458 20.2943 61.4375 20.0547C61.7318 19.8151 62.1068 19.6953 62.5625 19.6953C63.0417 19.6953 63.4297 19.819 63.7266 20.0664C64.026 20.3138 64.1758 20.6302 64.1758 21.0156H63.4492C63.4492 20.8177 63.3646 20.6471 63.1953 20.5039C63.0286 20.3607 62.8177 20.2891 62.5625 20.2891C62.2995 20.2891 62.0938 20.3464 61.9453 20.4609C61.7969 20.5755 61.7227 20.7253 61.7227 20.9102C61.7227 21.0846 61.7917 21.2161 61.9297 21.3047C62.0677 21.3932 62.3164 21.4779 62.6758 21.5586C63.0378 21.6393 63.3307 21.7357 63.5547 21.8477C63.7786 21.9596 63.944 22.0951 64.0508 22.2539C64.1602 22.4102 64.2148 22.6016 64.2148 22.8281C64.2148 23.2057 64.0638 23.5091 63.7617 23.7383C63.4596 23.9648 63.0677 24.0781 62.5859 24.0781C62.2474 24.0781 61.9479 24.0182 61.6875 23.8984C61.4271 23.7786 61.2227 23.612 61.0742 23.3984C60.9284 23.1823 60.8555 22.9492 60.8555 22.6992H61.5781C61.5911 22.9414 61.6875 23.1341 61.8672 23.2773C62.0495 23.418 62.2891 23.4883 62.5859 23.4883C62.8594 23.4883 63.0781 23.4336 63.2422 23.3242C63.4089 23.2122 63.4922 23.0638 63.4922 22.8789Z" fill="black"/>
<path d="M11.4434 15.418C10.9688 15.9453 10.2744 16.3701 9.36035 16.6924C8.44629 17.0146 7.44434 17.1758 6.35449 17.1758C4.67871 17.1758 3.33984 16.6631 2.33789 15.6377C1.33594 14.6123 0.799805 13.1855 0.729492 11.3574L0.720703 10.25C0.720703 8.99023 0.943359 7.8916 1.38867 6.9541C1.83398 6.01074 2.46973 5.28711 3.2959 4.7832C4.12793 4.27344 5.08887 4.01855 6.17871 4.01855C7.77246 4.01855 9.00879 4.38477 9.8877 5.11719C10.7725 5.84375 11.2881 6.93066 11.4346 8.37793H8.46387C8.3584 7.66309 8.12988 7.15332 7.77832 6.84863C7.42676 6.54395 6.92871 6.3916 6.28418 6.3916C5.51074 6.3916 4.91309 6.71973 4.49121 7.37598C4.06934 8.03223 3.85547 8.96973 3.84961 10.1885V10.9619C3.84961 12.2393 4.06641 13.2002 4.5 13.8447C4.93945 14.4834 5.62793 14.8027 6.56543 14.8027C7.36816 14.8027 7.96582 14.624 8.3584 14.2666V12.2803H6.21387V10.1621H11.4434V15.418ZM17.7012 17.1758C16.2422 17.1758 15.0615 16.7422 14.1592 15.875C13.2568 15.002 12.8057 13.8682 12.8057 12.4736V12.2275C12.8057 11.2549 12.9844 10.3965 13.3418 9.65234C13.7051 8.9082 14.2324 8.33398 14.9238 7.92969C15.6152 7.51953 16.4355 7.31445 17.3848 7.31445C18.7207 7.31445 19.7754 7.73047 20.5488 8.5625C21.3223 9.38867 21.709 10.543 21.709 12.0254V13.1768H15.8203C15.9258 13.71 16.1572 14.1289 16.5146 14.4336C16.8721 14.7383 17.335 14.8906 17.9033 14.8906C18.8408 14.8906 19.5732 14.5625 20.1006 13.9062L21.4541 15.5059C21.085 16.0156 20.5605 16.4229 19.8809 16.7275C19.207 17.0264 18.4805 17.1758 17.7012 17.1758ZM17.3672 9.59961C16.5 9.59961 15.9844 10.1738 15.8203 11.3223H18.8086V11.0938C18.8203 10.6191 18.7002 10.2529 18.4482 9.99512C18.1963 9.73145 17.8359 9.59961 17.3672 9.59961ZM27.5098 17.1758C26.0508 17.1758 24.8701 16.7422 23.9678 15.875C23.0654 15.002 22.6143 13.8682 22.6143 12.4736V12.2275C22.6143 11.2549 22.793 10.3965 23.1504 9.65234C23.5137 8.9082 24.041 8.33398 24.7324 7.92969C25.4238 7.51953 26.2441 7.31445 27.1934 7.31445C28.5293 7.31445 29.584 7.73047 30.3574 8.5625C31.1309 9.38867 31.5176 10.543 31.5176 12.0254V13.1768H25.6289C25.7344 13.71 25.9658 14.1289 26.3232 14.4336C26.6807 14.7383 27.1436 14.8906 27.7119 14.8906C28.6494 14.8906 29.3818 14.5625 29.9092 13.9062L31.2627 15.5059C30.8936 16.0156 30.3691 16.4229 29.6895 16.7275C29.0156 17.0264 28.2891 17.1758 27.5098 17.1758ZM27.1758 9.59961C26.3086 9.59961 25.793 10.1738 25.6289 11.3223H28.6172V11.0938C28.6289 10.6191 28.5088 10.2529 28.2568 9.99512C28.0049 9.73145 27.6445 9.59961 27.1758 9.59961ZM36.5361 13.458L35.7012 14.293V17H32.7393V3.49121H35.7012V10.6631L36 10.2676L38.2324 7.49023H41.7832L38.4521 11.4014L42.0029 17H38.6104L36.5361 13.458ZM57.8672 17H54.7998L50.2646 9.03711V17H47.1797V4.20312H50.2646L54.791 12.166V4.20312H57.8672V17ZM62.8066 17H59.8359V7.49023H62.8066V17ZM59.6602 5.03809C59.6602 4.61621 59.8125 4.27051 60.1172 4.00098C60.4219 3.73145 60.8174 3.59668 61.3037 3.59668C61.79 3.59668 62.1855 3.73145 62.4902 4.00098C62.7949 4.27051 62.9473 4.61621 62.9473 5.03809C62.9473 5.45996 62.7949 5.80566 62.4902 6.0752C62.1855 6.34473 61.79 6.47949 61.3037 6.47949C60.8174 6.47949 60.4219 6.34473 60.1172 6.0752C59.8125 5.80566 59.6602 5.45996 59.6602 5.03809ZM64.292 12.1748C64.292 11.2139 64.4502 10.3643 64.7666 9.62598C65.083 8.8877 65.5371 8.31934 66.1289 7.9209C66.7207 7.5166 67.4092 7.31445 68.1943 7.31445C69.1846 7.31445 69.958 7.64844 70.5146 8.31641L70.6201 7.49023H73.3096V16.6396C73.3096 17.4775 73.1133 18.2041 72.7207 18.8193C72.334 19.4404 71.7715 19.915 71.0332 20.2432C70.2949 20.5771 69.4395 20.7441 68.4668 20.7441C67.7695 20.7441 67.0928 20.6123 66.4365 20.3486C65.7861 20.085 65.2881 19.7422 64.9424 19.3203L66.1816 17.5801C66.7324 18.2305 67.459 18.5557 68.3613 18.5557C69.6738 18.5557 70.3301 17.8818 70.3301 16.5342V16.2354C69.7617 16.8623 69.0439 17.1758 68.1768 17.1758C67.0166 17.1758 66.0791 16.7334 65.3643 15.8486C64.6494 14.958 64.292 13.7686 64.292 12.2803V12.1748ZM67.2627 12.3594C67.2627 13.1387 67.4092 13.7568 67.7021 14.2139C67.9951 14.665 68.4053 14.8906 68.9326 14.8906C69.5713 14.8906 70.0371 14.6768 70.3301 14.249V10.25C70.043 9.81641 69.583 9.59961 68.9502 9.59961C68.4229 9.59961 68.0098 9.83691 67.7109 10.3115C67.4121 10.7803 67.2627 11.4629 67.2627 12.3594ZM77.8887 8.50977C78.5215 7.71289 79.3301 7.31445 80.3145 7.31445C81.3633 7.31445 82.1543 7.625 82.6875 8.24609C83.2207 8.86719 83.4932 9.78418 83.5049 10.9971V17H80.5342V11.0674C80.5342 10.5635 80.4316 10.1943 80.2266 9.95996C80.0215 9.71973 79.6729 9.59961 79.1807 9.59961C78.5713 9.59961 78.1406 9.79297 77.8887 10.1797V17H74.9268V3.5H77.8887V8.50977ZM88.6025 5.12598V7.49023H90.167V9.54688H88.6025V13.8975C88.6025 14.2549 88.667 14.5039 88.7959 14.6445C88.9248 14.7852 89.1797 14.8555 89.5605 14.8555C89.8535 14.8555 90.0996 14.8379 90.2988 14.8027V16.9209C89.7656 17.0908 89.209 17.1758 88.6289 17.1758C87.6094 17.1758 86.8564 16.9355 86.3701 16.4551C85.8838 15.9746 85.6406 15.2451 85.6406 14.2666V9.54688H84.4277V7.49023H85.6406V5.12598H88.6025Z" fill="black"/>
</svg>
